<?xml version="1.0" encoding="utf-8"?>
<!-- Generator: Adobe Illustrator 21.1.0, SVG Export Plug-In . SVG Version: 6.00 Build 0)  -->
<svg version="1.1" id="Layer_1" xmlns="http://www.w3.org/2000/svg" xmlns:xlink="http://www.w3.org/1999/xlink" x="0px" y="0px"
	 viewBox="0 0 50 50" style="enable-background:new 0 0 50 50;" xml:space="preserve">
<style type="text/css">
	.st0{fill:#AFD705;}
</style>
<g>
	<path class="st0" d="M27.1,0v4.4C37.5,5.5,45.7,14.3,45.7,25c0,10.7-8.2,19.5-18.6,20.6V50C39.9,48.9,50,38.1,50,25
		C50,11.9,39.9,1.1,27.1,0z"/>
	<path class="st0" d="M4.3,25c0-10.7,8.2-19.5,18.6-20.6V0C10.1,1.1,0,11.9,0,25c0,13.1,10.1,23.9,22.9,25v-4.4
		C12.5,44.5,4.3,35.7,4.3,25z"/>
	<path class="st0" d="M12.5,32.4h7.3c-0.4-0.7-0.7-1.4-0.9-2.2h-6.4c-0.6,0-1.1,0.5-1.1,1.1C11.4,31.9,11.9,32.4,12.5,32.4z"/>
	<path class="st0" d="M12.5,29.3h6.2c-0.1-0.7-0.2-1.4-0.2-2.2h-5.9c-0.6,0-1.1,0.5-1.1,1.1C11.4,28.8,11.9,29.3,12.5,29.3z"/>
	<path class="st0" d="M12.5,26.1h6c0.1-0.7,0.2-1.5,0.4-2.2h-6.4c-0.6,0-1.1,0.5-1.1,1.1C11.4,25.6,11.9,26.1,12.5,26.1z"/>
	<path class="st0" d="M12.5,20.8c-0.6,0-1.1,0.5-1.1,1.1c0,0.6,0.5,1.1,1.1,1.1h6.7c0.3-0.8,0.6-1.5,1.1-2.2H12.5z"/>
	<path class="st0" d="M23.3,17.7H12.5c-0.6,0-1.1,0.5-1.1,1.1c0,0.6,0.5,1.1,1.1,1.1H21C21.6,19,22.4,18.3,23.3,17.7z"/>
	<path class="st0" d="M29.8,15.6c0.4,0,0.8,0,1.2,0.1c0,0,0,0,0-0.1c0-0.6-0.5-1.1-1.1-1.1H12.5c-0.6,0-1.1,0.5-1.1,1.1
		c0,0.6,0.5,1.1,1.1,1.1H25C26.5,16,28.1,15.6,29.8,15.6z"/>
	<path class="st0" d="M30.4,33.1v-1.3c1.7-0.1,2.9-1.1,2.9-2.5v0c0-1.4-0.9-2.1-2.9-2.6v-3.3c0.7,0.1,1.4,0.4,2,1l0.6-0.8
		c-0.8-0.6-1.6-1-2.6-1.1v-0.8h-0.9v0.8c-1.6,0.1-2.8,1.1-2.8,2.5v0c0,1.4,0.9,2.1,2.9,2.6v3.4c-1-0.1-1.8-0.6-2.6-1.3l-0.6,0.8
		c0.9,0.8,2,1.3,3.2,1.4v1.3H30.4z M30.3,27.6c1.5,0.4,1.9,0.8,1.9,1.6v0c0,0.9-0.7,1.5-1.9,1.6V27.6z M27.7,24.8L27.7,24.8
		c0-0.8,0.7-1.5,1.8-1.5v3.2C28.1,26,27.7,25.5,27.7,24.8z"/>
	<path class="st0" d="M39.6,27c0-5.4-4.4-9.8-9.8-9.8c-5.4,0-9.8,4.4-9.8,9.8c0,5.4,4.4,9.8,9.8,9.8C35.2,36.9,39.6,32.5,39.6,27z
		 M22.1,27c0-4.2,3.4-7.7,7.6-7.7c4.2,0,7.6,3.4,7.6,7.7c0,4.2-3.4,7.7-7.6,7.7C25.6,34.7,22.1,31.3,22.1,27z"/>
</g>
</svg>
