<svg id="Layer_1" data-name="Layer 1" xmlns="http://www.w3.org/2000/svg" viewBox="0 0 50 50"><defs><style>.cls-1{fill:#afd705;}</style></defs><title>contato_mensagem_icon</title><path class="cls-1" d="M22.94,45.87a21,21,0,0,1-.28-41.68V0a25.09,25.09,0,0,0,.28,50Z"/><path class="cls-1" d="M26.78,0V4.13a21,21,0,0,1,.28,41.73V50a25.08,25.08,0,0,0-.28-50Z"/><path class="cls-1" d="M14.59,37.89A1,1,0,0,1,14,36.09a7.11,7.11,0,0,0,2.88-4.44c-3.29-1.89-5.24-4.81-5.24-7.92,0-5.55,6.22-10.07,13.88-10.07s13.88,4.52,13.88,10.07S33.17,33.8,25.52,33.8a19.41,19.41,0,0,1-2.19-.12,17.29,17.29,0,0,1-8.59,4.21ZM25.52,15.65c-6.55,0-11.88,3.62-11.88,8.07,0,2.53,1.78,4.95,4.76,6.47a1,1,0,0,1,.55.9,8.29,8.29,0,0,1-1.21,3.82,13.11,13.11,0,0,0,4.5-3,1,1,0,0,1,.87-.3,17.35,17.35,0,0,0,2.41.17c6.55,0,11.88-3.62,11.88-8.07S32.06,15.65,25.52,15.65Z"/></svg>