<?xml version="1.0" encoding="utf-8"?>
<!-- Generator: Adobe Illustrator 21.1.0, SVG Export Plug-In . SVG Version: 6.00 Build 0)  -->
<svg version="1.1" id="Layer_1" xmlns="http://www.w3.org/2000/svg" xmlns:xlink="http://www.w3.org/1999/xlink" x="0px" y="0px"
	 viewBox="0 0 50 50" style="enable-background:new 0 0 50 50;" xml:space="preserve">
<style type="text/css">
	.st0{fill:#AFD705;}
</style>
<g>
	<g>
		<path class="st0" d="M27.1,0v4.4C37.5,5.5,45.7,14.3,45.7,25c0,10.7-8.2,19.5-18.6,20.6V50C39.9,48.9,50,38.1,50,25
			C50,11.9,39.9,1.1,27.1,0z"/>
		<path class="st0" d="M22.9,45.6C12.5,44.5,4.3,35.7,4.3,25c0-10.7,8.2-19.5,18.6-20.6V0C10.1,1.1,0,11.9,0,25
			c0,13.1,10.1,23.9,22.9,25V45.6z"/>
	</g>
	<path class="st0" d="M12.3,34.6h25V15.4h-25V34.6z M14.5,32.5V20.8l10.1,6.1l10.6-6.2v11.8H14.5z M35.2,17.5v0.6l-10.6,6.2
		l-10.2-6.1v-0.7H35.2z"/>
</g>
</svg>
