<?xml version="1.0" encoding="utf-8"?>
<!-- Generator: Adobe Illustrator 21.1.0, SVG Export Plug-In . SVG Version: 6.00 Build 0)  -->
<svg version="1.1" id="Layer_1" xmlns="http://www.w3.org/2000/svg" xmlns:xlink="http://www.w3.org/1999/xlink" x="0px" y="0px"
	 viewBox="0 0 50 50" style="enable-background:new 0 0 50 50;" xml:space="preserve">
<style type="text/css">
	.st0{fill:#C80000;}
</style>
<g>
	<g>
		<path class="st0" d="M27.1,0v4.4C37.5,5.5,45.7,14.3,45.7,25c0,10.7-8.2,19.5-18.6,20.6V50C39.9,48.9,50,38.1,50,25
			C50,11.9,39.9,1.1,27.1,0z"/>
		<path class="st0" d="M22.9,45.6C12.5,44.5,4.3,35.7,4.3,25c0-10.7,8.2-19.5,18.6-20.6V0C10.1,1.1,0,11.9,0,25
			c0,13.1,10.1,23.9,22.9,25V45.6z"/>
	</g>
	<g>
		<path class="st0" d="M32.6,15.7c-0.2-0.9-1.6-1.3-3.2-1.6v-3h-1.3V14c-0.9-0.1-1.7-0.1-2.4-0.1V9.2h-1.3v4.6
			c-0.7,0-1.6,0.1-2.5,0.1v-3h-1.3v3.2c-1.5,0.3-2.8,0.7-2.9,1.5l0,0v19.8l0.4,0.2c0.4,0.1,0.7,0.2,1.1,0.3v2.6l0.4,0.2
			c1.7,0.7,3.5,1.1,5.4,1.1c3.2,0,5.6-1.1,5.7-1.1l0.4-0.2v-2.5c0.8-0.2,1.2-0.5,1.2-0.5l0.4-0.2L32.6,15.7L32.6,15.7z M25.2,15.2
			c3.1,0,5.1,0.4,5.9,0.7c-0.8,0.3-2.8,0.7-5.9,0.7c-3.1,0-5.1-0.4-5.9-0.7C20.1,15.6,22.1,15.2,25.2,15.2z M29.7,37.8
			c-0.7,0.3-2.5,0.9-4.8,0.9c-1.6,0-3.1-0.3-4.4-0.8v-1.2c1.1,0.3,3,0.7,5.1,0.7c1.5,0,2.9-0.2,4.1-0.6V37.8z M31.3,34.7
			c-0.1,0-0.2,0.1-0.3,0.1v-0.1L30.4,35c-1.1,0.3-2.8,0.7-5,0.7c-2.1,0-4.3-0.4-6.4-1.1V17.5c1.2,0.3,3.6,0.8,6.4,0.8
			c2.1,0,4.1-0.3,5.9-0.8V34.7z"/>
		<path class="st0" d="M22,32.1h6v-7.4h-6V32.1z M23,25.7H27V31H23V25.7z"/>
		<rect x="23.6" y="26.4" class="st0" width="3" height="1.4"/>
		<ellipse class="st0" cx="25" cy="29.4" rx="1.3" ry="1.3"/>
	</g>
</g>
</svg>
