<?xml version="1.0" encoding="utf-8"?>
<!-- Generator: Adobe Illustrator 21.1.0, SVG Export Plug-In . SVG Version: 6.00 Build 0)  -->
<svg version="1.1" id="Layer_1" xmlns="http://www.w3.org/2000/svg" xmlns:xlink="http://www.w3.org/1999/xlink" x="0px" y="0px"
	 viewBox="0 0 50 50" style="enable-background:new 0 0 50 50;" xml:space="preserve">
<style type="text/css">
	.st0{fill:#C80000;}
</style>
<g>
	<g>
		<g>
			<path class="st0" d="M27.1,0v4.4C37.5,5.5,45.7,14.3,45.7,25c0,10.7-8.2,19.5-18.6,20.6V50C39.9,48.9,50,38.1,50,25
				C50,11.9,39.9,1.1,27.1,0z"/>
			<path class="st0" d="M22.9,45.6C12.5,44.5,4.3,35.7,4.3,25c0-10.7,8.2-19.5,18.6-20.6V0C10.1,1.1,0,11.9,0,25
				c0,13.1,10.1,23.9,22.9,25V45.6z"/>
		</g>
	</g>
	<g>
		<path class="st0" d="M27.4,15.2v-1.4c0-0.1,0.2-1.3-0.6-2.2c-0.4-0.5-1-0.7-1.8-0.7c-0.2,0-2.1,0.1-2.4,1.9v2.4h-6.1v21.9h1.7
			c0.1,0.5,0.4,1,1,1h0.3l0.1,1h2v-1h0.1c0.1,0,0.1,0,0.2,0c0.4,0,0.9-0.3,1.1-1.1h4.5c0.1,0.5,0.4,1,1,1h0.3l0.1,1h1.9v-1h0.1
			c0.1,0,0.1,0,0.2,0c0.4,0,0.9-0.3,1.1-1.1h1.3V15.2H27.4z M23.3,12.8c0.2-1.3,1.4-1.3,1.7-1.3c0.6,0,1,0.1,1.3,0.5
			c0.5,0.6,0.4,1.7,0.4,1.7v1.5h-3.4V12.8z M32.2,35.7H17.9V16.5h14.3V35.7z"/>
		<path class="st0" d="M27.9,19.4h-5.2v4.1h5.2V19.4z M27.2,22.8h-3.9V20h3.9V22.8z"/>
		<path class="st0" d="M25,28.7c-0.5,0-1.1,0.2-1.5,0.6l-0.2,0.2l1.5,1c0.1,0,0.1,0.1,0.1,0.2c0,0.1,0,0.1,0,0.2
			C24.9,31,24.7,31,24.6,31l-1.5-1L23,30.2c-0.1,0.3-0.1,0.5-0.1,0.7c0,1.2,1,2.2,2.2,2.2s2.2-1,2.2-2.2
			C27.2,29.7,26.2,28.7,25,28.7z M25,32.7c-1,0-1.7-0.8-1.7-1.8c0-0.1,0-0.2,0-0.3l1.1,0.7c0.3,0.2,0.7,0.1,1-0.2
			c0.1-0.2,0.1-0.3,0.1-0.5c0-0.2-0.1-0.3-0.3-0.4l-1-0.7c0.2-0.2,0.6-0.3,1-0.3c1,0,1.7,0.8,1.7,1.8S26,32.7,25,32.7z"/>
	</g>
</g>
</svg>
