<?xml version="1.0" encoding="utf-8"?>
<!-- Generator: Adobe Illustrator 21.1.0, SVG Export Plug-In . SVG Version: 6.00 Build 0)  -->
<svg version="1.1" id="Layer_1" xmlns="http://www.w3.org/2000/svg" xmlns:xlink="http://www.w3.org/1999/xlink" x="0px" y="0px"
	 viewBox="0 0 50 50" style="enable-background:new 0 0 50 50;" xml:space="preserve">
<style type="text/css">
	.st0{fill:#AFD705;}
</style>
<g>
	<path class="st0" d="M27.1,0v4.4C37.5,5.5,45.7,14.3,45.7,25c0,10.7-8.2,19.5-18.6,20.6V50C39.9,48.9,50,38.1,50,25
		C50,11.9,39.9,1.1,27.1,0z"/>
	<path class="st0" d="M4.3,25c0-10.7,8.2-19.5,18.6-20.6V0C10.1,1.1,0,11.9,0,25c0,13.1,10.1,23.9,22.9,25v-4.4
		C12.5,44.5,4.3,35.7,4.3,25z"/>
	<path class="st0" d="M32.7,19L32.7,19c-0.1-4-3.3-7.3-7.4-7.3c-4,0-7.3,3.3-7.4,7.3h0v3.3h-2.4v16h19v-16h-1.8V19z M32.4,36.2H17.6
		V24.5h14.7V36.2z M30.5,22.3H20.1v-3.2c0-2.9,2.3-5.3,5.2-5.3c2.9,0,5.2,2.4,5.2,5.3V22.3z"/>
</g>
</svg>
