<?xml version="1.0" encoding="utf-8"?>
<!-- Generator: Adobe Illustrator 21.1.0, SVG Export Plug-In . SVG Version: 6.00 Build 0)  -->
<svg version="1.1" id="Layer_1" xmlns="http://www.w3.org/2000/svg" xmlns:xlink="http://www.w3.org/1999/xlink" x="0px" y="0px"
	 viewBox="0 0 155 30" style="enable-background:new 0 0 155 30;" xml:space="preserve">
<style type="text/css">
	.st0{fill:#1A2D5F;}
	.st1{fill:#AFD705;}
</style>
<g>
	<path class="st0" d="M26,15.1L26,15.1C26,6.7,32.6,0,41.5,0S57,6.6,57,14.9V15c0,8.3-6.7,15-15.6,15C32.6,30,26,23.4,26,15.1z
		 M48.9,15.1L48.9,15.1c0-4.2-3-7.9-7.4-7.9c-4.4,0-7.3,3.5-7.3,7.7V15c0,4.2,3,7.8,7.4,7.8C46,22.8,48.9,19.2,48.9,15.1z"/>
	<path class="st0" d="M58.1,0.6h7.5l11.9,15.2V0.6h7.9v28.8h-7L66,13.6v15.8h-7.9V0.6z"/>
	<path class="st1" d="M103.5,0.6h23.2v6.8h-15.3v4.4h13.8V18h-13.8v4.6h15.5v6.8h-23.4V0.6z"/>
	<path class="st1" d="M127.3,15.1L127.3,15.1c0-8.5,6.5-15.1,15.2-15.1c5.9,0,9.7,2.5,12.2,6l-6,4.7c-1.6-2.1-3.5-3.4-6.3-3.4
		c-4,0-6.9,3.4-6.9,7.6V15c0,4.3,2.8,7.7,6.9,7.7c3,0,4.8-1.4,6.5-3.5l6,4.3c-2.7,3.8-6.4,6.5-12.8,6.5
		C133.9,30,127.3,23.7,127.3,15.1z"/>
	<polygon class="st1" points="85.2,0.6 85.2,7.6 85.2,9.5 85.2,29.4 93.2,29.4 93.2,7.6 101.9,7.6 101.9,0.6 	"/>
	<polygon class="st0" points="7.4,0.6 0,0.6 0,4.2 0,7 0,12.1 0,21.5 0,29.4 7.4,29.4 	"/>
	<path class="st0" d="M20.1,14.3c2.6-1.1,4.5-3.1,4.5-6.4V7.8c0-2-0.7-3.5-1.9-4.7c-1.7-1.7-4.2-2.6-7.9-2.6H9V7h4
		c2.4,0,3.6,0.9,3.6,2.5v0.1c0,1.7-1.4,2.5-3.8,2.5H9v5.6h4.9c2.7,0,3.9,1,3.9,2.6v0.1c0,1.7-1.4,2.6-3.8,2.6H9v6.4h5.9
		c6.9,0,10.9-3,10.9-8v-0.1C25.8,17.5,23.6,15.5,20.1,14.3z"/>
</g>
</svg>
