<?xml version="1.0" encoding="utf-8"?>
<!-- Generator: Adobe Illustrator 21.1.0, SVG Export Plug-In . SVG Version: 6.00 Build 0)  -->
<svg version="1.1" id="Layer_1" xmlns="http://www.w3.org/2000/svg" xmlns:xlink="http://www.w3.org/1999/xlink" x="0px" y="0px"
	 viewBox="0 0 100 100" style="enable-background:new 0 0 100 100;" xml:space="preserve">
<style type="text/css">
	.st0{fill:#FFFFFF;}
	.st1{fill:#B3C3C3;}
	.st2{fill:none;stroke:#393D3D;stroke-miterlimit:10;}
</style>
<g>
	<g>
		<g id="XMLID_3_">
			<g>
				<path class="st0" d="M80.3,49.6H38.4c0,0,1.2-6.8,21.2-6.8C79.6,42.8,80.3,49.6,80.3,49.6z"/>
				<path class="st1" d="M43.6,63.7h32.2c-3.2,6.4-10.5,10.1-10.5,10.1l5.2,14.6h-22L54.1,74C46,69.6,43.6,63.7,43.6,63.7z"/>
				<path class="st0" d="M45.8,88.3c1.6,0,6.2-13.6,6.2-13.6c-5.9-2.8-9.1-8.8-9.1-8.8C42.3,73.6,44.2,88.3,45.8,88.3z M70.4,88.3
					l-5.2-14.6c0,0,7.3-3.7,10.5-10.1H43.6c0,0,2.4,5.9,10.5,10.3l-5.7,14.3H70.4z M80.3,54.9c0,0-1.3,13.9-12.8,19.9l5.4,15.5h-45
					l8.6-23.1c0,0,1.9-4.9-2.2-7.5c-4.1-2.6-10.7-4.8-10.7-4.8H80.3z"/>
				<path class="st0" d="M38.4,49.6h41.9h0.8c0.9,0,1.6,0.7,1.6,1.6v2c0,0.9-0.7,1.6-1.6,1.6h-0.8H23.7h-4.8c-0.9,0-1.6-0.7-1.6-1.6
					v-2c0-0.9,0.7-1.6,1.6-1.6h0.8h16.4H38.4z"/>
				<rect x="21.6" y="31.5" class="st1" width="12.7" height="16.5"/>
				<path class="st0" d="M30.1,12.1h-4.4c0,0,0.3-2.3,2.3-2.3C29.9,9.7,30.1,12.1,30.1,12.1z"/>
				<path class="st1" d="M29.3,20.6c1.1,1.1,1.8,2.1,1.8,3.8c0,0,0,2.9-3.1,2.9s-3.3-2.9-3.3-2.9c0-1.7,0.6-2.7,1.8-3.8
					c1.2-1.1,1.4-2.1,1.4-2.1S28.2,19.5,29.3,20.6z"/>
				<path class="st0" d="M21.6,48.1h12.7V31.5H21.6V48.1z M19.7,49.6V15.3c0-1.8,1.5-3.3,3.3-3.3h2.7h4.4h2.8c1.8,0,3.3,1.5,3.3,3.3
					v34.3H19.7z M28,27.3c3.1,0,3.1-2.9,3.1-2.9c0-1.7-0.6-2.7-1.8-3.8c-1.2-1.1-1.4-2.1-1.4-2.1s-0.2,1-1.4,2.1
					c-1.1,1.1-1.8,2.1-1.8,3.8C24.7,24.4,24.9,27.3,28,27.3z"/>
			</g>
			<g>
				<path class="st2" d="M19.7,49.6h-0.8c-0.9,0-1.6,0.7-1.6,1.6v2c0,0.9,0.7,1.6,1.6,1.6h4.8h56.6h0.8c0.9,0,1.6-0.7,1.6-1.6v-2
					c0-0.9-0.7-1.6-1.6-1.6h-0.8H38.4h-2.3H19.7z"/>
				<path class="st2" d="M80.3,49.6c0,0-0.7-6.8-20.7-6.8c-20,0-21.2,6.8-21.2,6.8"/>
				<path class="st2" d="M80.3,54.9c0,0-1.3,13.9-12.8,19.9l5.4,15.5h-45l8.6-23.1c0,0,1.9-4.9-2.2-7.5c-4.1-2.6-10.7-4.8-10.7-4.8"
					/>
				<path class="st2" d="M42.9,65.9c0,0,3.2,6,9.1,8.8c0,0-4.6,13.6-6.2,13.6C44.2,88.3,42.3,73.6,42.9,65.9z"/>
				<path class="st2" d="M36.1,49.6V15.3c0-1.8-1.5-3.3-3.3-3.3h-2.8h-4.4H23c-1.8,0-3.3,1.5-3.3,3.3v34.3"/>
				<path class="st2" d="M30.1,12.1c0,0-0.1-2.3-2.1-2.3c-2,0-2.3,2.3-2.3,2.3"/>
			</g>
		</g>
	</g>
</g>
</svg>
